TITLE ""
FILE "Disc3Track20.mp3" MP3
  TRACK 01 AUDIO
    TITLE "Disc3Track20_01"
    INDEX 01 00:00:00
  TRACK 02 AUDIO
    TITLE "Disc3Track20_02"
    INDEX 01 00:01:14
  TRACK 03 AUDIO
    TITLE "Disc3Track20_03"
    INDEX 01 00:04:22
  TRACK 04 AUDIO
    TITLE "Disc3Track20_04"
    INDEX 01 00:05:49
  TRACK 05 AUDIO
    TITLE "Disc3Track20_05"
    INDEX 01 00:09:46
  TRACK 06 AUDIO
    TITLE "Disc3Track20_06"
    INDEX 01 00:10:03
  TRACK 07 AUDIO
    TITLE "Disc3Track20_07"
    INDEX 01 00:11:39
  TRACK 08 AUDIO
    TITLE "Disc3Track20_08"
    INDEX 01 00:13:72
  TRACK 09 AUDIO
    TITLE "Disc3Track20_09"
    INDEX 01 00:15:31
  TRACK 10 AUDIO
    TITLE "Disc3Track20_10"
    INDEX 01 00:19:41
  TRACK 11 AUDIO
    TITLE "Disc3Track20_11"
    INDEX 01 00:19:72
  TRACK 12 AUDIO
    TITLE "Disc3Track20_12"
    INDEX 01 00:21:38
  TRACK 13 AUDIO
    TITLE "Disc3Track20_13"
    INDEX 01 00:22:37
  TRACK 14 AUDIO
    TITLE "Disc3Track20_14"
    INDEX 01 00:24:03
  TRACK 15 AUDIO
    TITLE "Disc3Track20_15"
    INDEX 01 00:24:44
  TRACK 16 AUDIO
    TITLE "Disc3Track20_16"
    INDEX 01 00:26:10
  TRACK 17 AUDIO
    TITLE "Disc3Track20_17"
    INDEX 01 00:27:44
  TRACK 18 AUDIO
    TITLE "Disc3Track20_18"
    INDEX 01 00:29:08
  TRACK 19 AUDIO
    TITLE "Disc3Track20_19"
    INDEX 01 00:34:70
  TRACK 20 AUDIO
    TITLE "Disc3Track20_20"
    INDEX 01 00:35:26
  TRACK 21 AUDIO
    TITLE "Disc3Track20_21"
    INDEX 01 00:36:75
  TRACK 22 AUDIO
    TITLE "Disc3Track20_22"
    INDEX 01 00:38:05
  TRACK 23 AUDIO
    TITLE "Disc3Track20_23"
    INDEX 01 00:39:51
  TRACK 24 AUDIO
    TITLE "Disc3Track20_24"
    INDEX 01 00:42:30
  TRACK 25 AUDIO
    TITLE "Disc3Track20_25"
    INDEX 01 00:42:69
  TRACK 26 AUDIO
    TITLE "Disc3Track20_26"
    INDEX 01 00:44:23
  TRACK 27 AUDIO
    TITLE "Disc3Track20_27"
    INDEX 01 00:46:08
  TRACK 28 AUDIO
    TITLE "Disc3Track20_28"
    INDEX 01 00:47:37
  TRACK 29 AUDIO
    TITLE "Disc3Track20_29"
    INDEX 01 00:50:20
  TRACK 30 AUDIO
    TITLE "Disc3Track20_30"
    INDEX 01 00:50:51
  TRACK 31 AUDIO
    TITLE "Disc3Track20_31"
    INDEX 01 00:52:15
  TRACK 32 AUDIO
    TITLE "Disc3Track20_32"
    INDEX 01 00:53:40
  TRACK 33 AUDIO
    TITLE "Disc3Track20_33"
    INDEX 01 00:55:03
  TRACK 34 AUDIO
    TITLE "Disc3Track20_34"
    INDEX 01 00:57:10
  TRACK 35 AUDIO
    TITLE "Disc3Track20_35"
    INDEX 01 00:57:42
  TRACK 36 AUDIO
    TITLE "Disc3Track20_36"
    INDEX 01 00:59:07
  TRACK 37 AUDIO
    TITLE "Disc3Track20_37"
    INDEX 01 01:00:05
  TRACK 38 AUDIO
    TITLE "Disc3Track20_38"
    INDEX 01 01:01:47
  TRACK 39 AUDIO
    TITLE "Disc3Track20_39"
    INDEX 01 01:02:09
  TRACK 40 AUDIO
    TITLE "Disc3Track20_40"
    INDEX 01 01:03:42
  TRACK 41 AUDIO
    TITLE "Disc3Track20_41"
    INDEX 01 01:05:70
  TRACK 42 AUDIO
    TITLE "Disc3Track20_42"
    INDEX 01 01:07:28
  TRACK 43 AUDIO
    TITLE "Disc3Track20_43"
    INDEX 01 01:09:21
  TRACK 44 AUDIO
    TITLE "Disc3Track20_44"
    INDEX 01 01:09:53
  TRACK 45 AUDIO
    TITLE "Disc3Track20_45"
    INDEX 01 01:10:74
  TRACK 46 AUDIO
    TITLE "Disc3Track20_46"
    INDEX 01 01:13:23
  TRACK 47 AUDIO
    TITLE "Disc3Track20_47"
    INDEX 01 01:14:42
  TRACK 48 AUDIO
    TITLE "Disc3Track20_48"
    INDEX 01 01:17:07
  TRACK 49 AUDIO
    TITLE "Disc3Track20_49"
    INDEX 01 01:17:38
  TRACK 50 AUDIO
    TITLE "Disc3Track20_50"
    INDEX 01 01:19:06
  TRACK 51 AUDIO
    TITLE "Disc3Track20_51"
    INDEX 01 01:20:39
  TRACK 52 AUDIO
    TITLE "Disc3Track20_52"
    INDEX 01 01:22:06
